<svg width="178" height="44" viewBox="0 0 178 44" fill="none" xmlns="http://www.w3.org/2000/svg">
<path fill-rule="evenodd" clip-rule="evenodd" d="M21.6394 43.8488C33.5905 43.8488 43.2786 34.2187 43.2786 22.3394C43.2786 10.46 33.5905 0.82991 21.6394 0.82991C9.68828 0.82991 0 10.46 0 22.3394C0 34.2187 9.68828 43.8488 21.6394 43.8488Z" fill="#B72E2E"/>
<path d="M24.985 34.4068C24.817 34.0287 24.67 33.6436 24.544 33.2515C24.418 32.8454 24.3201 32.4393 24.25 32.0332C23.5221 32.8734 22.633 33.5526 21.583 34.0707C20.547 34.5888 19.357 34.8479 18.013 34.8479C15.787 34.8479 14.0161 34.2457 12.7001 33.0414C11.3981 31.8231 10.7471 30.1707 10.7471 28.0842C10.7471 25.9556 11.6011 24.3103 13.3091 23.1479C15.0171 21.9856 17.523 21.4045 20.827 21.4045H23.956V19.1779C23.956 18.0857 23.6411 17.2385 23.011 16.6363C22.381 16.0342 21.45 15.7331 20.2181 15.7331C19.518 15.7331 18.895 15.8171 18.349 15.9852C17.803 16.1392 17.362 16.3282 17.026 16.5523L16.6271 18.9889H12.0071L12.0281 13.9477C13.1481 13.1914 14.4291 12.5543 15.871 12.0361C17.327 11.518 18.9091 11.2589 20.6171 11.2589C23.431 11.2589 25.713 11.9521 27.463 13.3384C29.227 14.7108 30.109 16.6713 30.109 19.22V28.6093C30.109 28.9594 30.109 29.2885 30.109 29.5966C30.123 29.9047 30.151 30.1987 30.193 30.4788L32.062 30.7309V34.4068H24.985ZM19.6721 30.3107C20.596 30.3107 21.436 30.1147 22.192 29.7227C22.9481 29.3165 23.536 28.8124 23.956 28.2102V24.7443H20.827C19.5251 24.7443 18.5381 25.0524 17.866 25.6686C17.194 26.2708 16.858 26.9989 16.858 27.8531C16.858 28.6233 17.103 29.2255 17.593 29.6596C18.097 30.0937 18.7901 30.3107 19.6721 30.3107Z" fill="#333333"/>
<path d="M67.813 32.2736C67.6785 31.9712 67.561 31.6631 67.4601 31.3494C67.3594 31.0246 67.281 30.6997 67.225 30.3748C66.6425 31.0469 65.9314 31.5902 65.0914 32.0048C64.2626 32.4192 63.3106 32.6266 62.2354 32.6266C60.4546 32.6266 59.0378 32.1448 57.985 31.1814C56.9434 30.2068 56.4226 28.8848 56.4226 27.2155C56.4226 25.5128 57.1058 24.1964 58.4722 23.2666C59.8386 22.3367 61.8434 21.8718 64.4866 21.8718H66.9898V20.0905C66.9898 19.2168 66.7378 18.539 66.2338 18.0573C65.7297 17.5756 64.9849 17.3347 63.9994 17.3347C63.4394 17.3347 62.941 17.4019 62.5042 17.5363C62.0674 17.6595 61.7146 17.8108 61.4458 17.99L61.1266 19.9393H57.4306L57.4474 15.9063C58.3434 15.3014 59.3682 14.7917 60.5218 14.3771C61.6866 13.9626 62.9522 13.7554 64.3186 13.7554C66.5697 13.7554 68.3954 14.31 69.7954 15.4189C71.2066 16.5168 71.9121 18.0853 71.9121 20.1241V27.6357C71.9121 27.9158 71.9121 28.179 71.9121 28.4255C71.9234 28.6719 71.9458 28.9072 71.9794 29.1312L73.4745 29.3329V32.2736H67.813ZM63.5626 28.9968C64.3018 28.9968 64.9737 28.84 65.5786 28.5263C66.1834 28.2014 66.6537 27.7981 66.9898 27.3164V24.5437H64.4866C63.445 24.5437 62.6554 24.7901 62.1178 25.2831C61.5802 25.7648 61.3114 26.3474 61.3114 27.0307C61.3114 27.6469 61.5074 28.1286 61.8994 28.4759C62.3026 28.8232 62.857 28.9968 63.5626 28.9968ZM74.7849 17.049V14.0914H81.9081L82.1433 16.2088C82.6809 15.4245 83.3249 14.8197 84.0753 14.3939C84.8257 13.9682 85.6993 13.7554 86.6961 13.7554C88.9473 13.7554 90.6944 14.6348 91.9377 16.3936C93.1808 18.1525 93.8024 20.4659 93.8024 23.3338V23.6866C93.8024 26.3754 93.1808 28.5375 91.9377 30.1732C90.6944 31.8088 88.9585 32.6266 86.7297 32.6266C85.7777 32.6266 84.932 32.4529 84.1929 32.1056C83.4537 31.7471 82.8209 31.2262 82.2945 30.5428V35.8025L84.6632 36.3066V39.2642H75.037V36.3066L77.4057 35.8025V17.5532L74.7849 17.049ZM88.8969 23.3338C88.8969 21.6198 88.6113 20.2306 88.0401 19.1664C87.4689 18.1021 86.5952 17.57 85.4193 17.57C84.6801 17.57 84.0473 17.7212 83.5209 18.0236C83.0057 18.3261 82.5969 18.7574 82.2945 19.3175V27.2828C82.5969 27.7981 83.0057 28.1902 83.5209 28.4591C84.0473 28.728 84.6913 28.8623 85.4529 28.8623C86.6401 28.8623 87.5081 28.3975 88.0569 27.4677C88.6169 26.5378 88.8969 25.2775 88.8969 23.6866V23.3338ZM94.9623 17.049V14.0914H102.085L102.321 16.2088C102.858 15.4245 103.502 14.8197 104.253 14.3939C105.003 13.9682 105.877 13.7554 106.874 13.7554C109.125 13.7554 110.872 14.6348 112.115 16.3936C113.358 18.1525 113.98 20.4659 113.98 23.3338V23.6866C113.98 26.3754 113.358 28.5375 112.115 30.1732C110.872 31.8088 109.136 32.6266 106.907 32.6266C105.955 32.6266 105.109 32.4529 104.37 32.1056C103.631 31.7471 102.998 31.2262 102.472 30.5428V35.8025L104.841 36.3066V39.2642H95.2144V36.3066L97.5832 35.8025V17.5532L94.9623 17.049ZM109.074 23.3338C109.074 21.6198 108.789 20.2306 108.218 19.1664C107.646 18.1021 106.773 17.57 105.597 17.57C104.857 17.57 104.225 17.7212 103.698 18.0236C103.183 18.3261 102.774 18.7574 102.472 19.3175V27.2828C102.774 27.7981 103.183 28.1902 103.698 28.4591C104.225 28.728 104.869 28.8623 105.63 28.8623C106.818 28.8623 107.686 28.3975 108.234 27.4677C108.794 26.5378 109.074 25.2775 109.074 23.6866V23.3338ZM124.866 32.6266C122.245 32.6266 120.151 31.7863 118.583 30.1059C117.015 28.4255 116.231 26.2914 116.231 23.7035V23.0313C116.231 20.3315 116.97 18.1077 118.449 16.36C119.938 14.6123 121.932 13.7442 124.429 13.7554C126.882 13.7554 128.786 14.4948 130.141 15.9735C131.497 17.4523 132.174 19.452 132.174 21.9727V24.6445H121.321L121.288 24.7453C121.377 25.944 121.775 26.9299 122.481 27.7029C123.197 28.4759 124.166 28.8623 125.387 28.8623C126.473 28.8623 127.375 28.756 128.092 28.5431C128.809 28.319 129.593 27.9718 130.444 27.5012L131.771 30.526C131.021 31.1197 130.046 31.6182 128.848 32.0216C127.661 32.4248 126.333 32.6266 124.866 32.6266ZM124.429 17.5363C123.522 17.5363 122.805 17.8837 122.279 18.5782C121.753 19.2727 121.428 20.1858 121.305 21.3173L121.355 21.4013H127.369V20.9644C127.369 19.9225 127.123 19.0935 126.63 18.4773C126.149 17.85 125.415 17.5363 124.429 17.5363ZM134.879 29.3329L137.231 28.8288V17.5532L134.627 17.049V14.0914H141.8L142.019 16.7466C142.445 15.8055 142.993 15.0717 143.665 14.5452C144.338 14.0187 145.116 13.7554 146.001 13.7554C146.258 13.7554 146.527 13.7777 146.807 13.8226C147.098 13.8562 147.339 13.901 147.53 13.957L147.008 18.427L144.992 18.3766C144.276 18.3766 143.682 18.5166 143.211 18.7966C142.741 19.0767 142.383 19.4744 142.136 19.9898V28.8288L144.488 29.3329V32.2736H134.879V29.3329ZM148.839 29.3329L151.209 28.8288V17.5532L148.587 17.049V14.0914H156.114V28.8288L158.466 29.3329V32.2736H148.839V29.3329ZM156.114 9.73913H151.209V6.05903H156.114V9.73913ZM171.654 32.2736C171.52 31.9712 171.402 31.6631 171.301 31.3494C171.201 31.0246 171.122 30.6997 171.066 30.3748C170.483 31.0469 169.772 31.5902 168.932 32.0048C168.103 32.4192 167.152 32.6266 166.076 32.6266C164.296 32.6266 162.879 32.1448 161.826 31.1814C160.784 30.2068 160.264 28.8848 160.264 27.2155C160.264 25.5128 160.946 24.1964 162.313 23.2666C163.68 22.3367 165.685 21.8718 168.327 21.8718H170.831V20.0905C170.831 19.2168 170.579 18.539 170.075 18.0573C169.571 17.5756 168.826 17.3347 167.841 17.3347C167.281 17.3347 166.782 17.4019 166.346 17.5363C165.908 17.6595 165.555 17.8108 165.287 17.99L164.967 19.9393H161.272L161.288 15.9063C162.185 15.3014 163.209 14.7917 164.363 14.3771C165.527 13.9626 166.794 13.7554 168.159 13.7554C170.411 13.7554 172.236 14.31 173.637 15.4189C175.048 16.5168 175.753 18.0853 175.753 20.1241V27.6357C175.753 27.9158 175.753 28.179 175.753 28.4255C175.765 28.6719 175.787 28.9072 175.821 29.1312L177.316 29.3329V32.2736H171.654ZM167.404 28.9968C168.143 28.9968 168.815 28.84 169.42 28.5263C170.025 28.2014 170.495 27.7981 170.831 27.3164V24.5437H168.327C167.286 24.5437 166.496 24.7901 165.959 25.2831C165.421 25.7648 165.153 26.3474 165.153 27.0307C165.153 27.6469 165.349 28.1286 165.741 28.4759C166.144 28.8232 166.698 28.9968 167.404 28.9968Z" fill="white"/>
</svg>
